<svg width="132" height="152" viewBox="0 0 132 152" fill="none" xmlns="http://www.w3.org/2000/svg">
<path d="M65.9837 14.7455L91.1834 29.2974L103.961 21.9408L65.9837 0L2.54901 36.654L15.2618 44.0106L65.9837 14.7455Z" fill="#FFC33A"/>
<path d="M116.674 29.2974L65.984 58.5626L40.7844 44.0107L28.0394 51.3673L65.984 73.2758L129.451 36.654L116.674 29.2974Z" fill="#EA7432"/>
<path d="M12.745 78.5355L0 71.1788V114.996L63.4347 151.65V136.937L12.745 107.639V78.5355Z" fill="#510B16"/>
<path d="M0 56.4649L50.6897 85.7301V114.834L63.4347 122.223V78.3735L0 41.7517V56.4649Z" fill="#9E9F42"/>
<path d="M106.51 71.1785V56.4653L68.533 78.3738V151.65L81.2781 144.293V85.7304L106.51 71.1785Z" fill="#9E9F42"/>
<path d="M119.223 49.1083V107.639L94.0231 122.223V136.936L132 114.995V41.7517L119.223 49.1083Z" fill="#510B16"/>
</svg>
