<svg width="87" height="79" viewBox="0 0 87 79" fill="none" xmlns="http://www.w3.org/2000/svg">
<path d="M65.25 26.3334H72.5C73.4614 26.3334 74.3834 26.6802 75.0633 27.2975C75.7431 27.9148 76.125 28.752 76.125 29.625V69.125C76.125 69.998 75.7431 70.8353 75.0633 71.4526C74.3834 72.0699 73.4614 72.4167 72.5 72.4167H14.5C13.5386 72.4167 12.6166 72.0699 11.9367 71.4526C11.2569 70.8353 10.875 69.998 10.875 69.125V29.625C10.875 28.752 11.2569 27.9148 11.9367 27.2975C12.6166 26.6802 13.5386 26.3334 14.5 26.3334H21.75V23.0417C21.75 17.8037 24.0415 12.7802 28.1204 9.07633C32.1993 5.37248 37.7315 3.29169 43.5 3.29169C49.2685 3.29169 54.8007 5.37248 58.8796 9.07633C62.9585 12.7802 65.25 17.8037 65.25 23.0417V26.3334ZM18.125 32.9167V65.8334H68.875V32.9167H18.125ZM39.875 46.0834H47.125V52.6667H39.875V46.0834ZM25.375 46.0834H32.625V52.6667H25.375V46.0834ZM54.375 46.0834H61.625V52.6667H54.375V46.0834ZM58 26.3334V23.0417C58 19.5497 56.4723 16.2007 53.753 13.7314C51.0338 11.2622 47.3456 9.87502 43.5 9.87502C39.6544 9.87502 35.9662 11.2622 33.247 13.7314C30.5277 16.2007 29 19.5497 29 23.0417V26.3334H58Z" fill="#472225"/>
</svg>
