<svg width="136" height="139" viewBox="0 0 136 139" fill="none" xmlns="http://www.w3.org/2000/svg">
<path d="M14.1667 55.0209H121.833V110.042H14.1667V55.0209Z" fill="#CFD8DC"/>
<path d="M14.1667 110.042H121.833V121.625H14.1667V110.042Z" fill="#B0BEC5"/>
<path d="M76.5 69.5H110.5V121.625H76.5V69.5Z" fill="#455A64"/>
<path d="M25.5 69.5H65.1667V101.354H25.5V69.5Z" fill="#E3F2FD"/>
<path d="M28.3333 72.3959H62.3333V98.4584H28.3333V72.3959Z" fill="#1E88E5"/>
<path d="M103.417 97.0104C102.567 97.0104 102 97.5895 102 98.4583V104.25C102 105.119 102.567 105.698 103.417 105.698C104.267 105.698 104.833 105.119 104.833 104.25V98.4583C104.833 97.5895 104.267 97.0104 103.417 97.0104Z" fill="#90A4AE"/>
<path d="M68 63.7084C72.6944 63.7084 76.5 59.8188 76.5 55.0209C76.5 50.2229 72.6944 46.3334 68 46.3334C63.3056 46.3334 59.5 50.2229 59.5 55.0209C59.5 59.8188 63.3056 63.7084 68 63.7084Z" fill="#558B2F"/>
<path d="M102 63.7084C106.694 63.7084 110.5 59.8188 110.5 55.0209C110.5 50.2229 106.694 46.3334 102 46.3334C97.3056 46.3334 93.5 50.2229 93.5 55.0209C93.5 59.8188 97.3056 63.7084 102 63.7084Z" fill="#558B2F"/>
<path d="M34 63.7084C38.6944 63.7084 42.5 59.8188 42.5 55.0209C42.5 50.2229 38.6944 46.3334 34 46.3334C29.3056 46.3334 25.5 50.2229 25.5 55.0209C25.5 59.8188 29.3056 63.7084 34 63.7084Z" fill="#558B2F"/>
<path d="M113.333 17.375H22.6667C19.55 17.375 17 19.9813 17 23.1667V31.8542H119V23.1667C119 19.9813 116.45 17.375 113.333 17.375Z" fill="#7CB342"/>
<path d="M59.5 31.8542H76.5V55.0209H59.5V31.8542Z" fill="#7CB342"/>
<path d="M104.833 31.8542H90.6667L93.5 55.0209H110.5L104.833 31.8542Z" fill="#7CB342"/>
<path d="M31.1667 31.8542H45.3333L42.5 55.0209H25.5L31.1667 31.8542Z" fill="#7CB342"/>
<path d="M85 63.7084C89.6944 63.7084 93.5 59.8188 93.5 55.0209C93.5 50.2229 89.6944 46.3334 85 46.3334C80.3056 46.3334 76.5 50.2229 76.5 55.0209C76.5 59.8188 80.3056 63.7084 85 63.7084Z" fill="#FFA000"/>
<path d="M127.5 55.0209C127.5 59.9438 123.817 63.7084 119 63.7084C114.183 63.7084 110.5 59.9438 110.5 55.0209C110.5 50.098 114.183 46.3334 119 46.3334L127.5 55.0209Z" fill="#FFA000"/>
<path d="M51 63.7084C55.6944 63.7084 59.5 59.8188 59.5 55.0209C59.5 50.2229 55.6944 46.3334 51 46.3334C46.3056 46.3334 42.5 50.2229 42.5 55.0209C42.5 59.8188 46.3056 63.7084 51 63.7084Z" fill="#FFA000"/>
<path d="M8.5 55.0209C8.5 59.9438 12.1833 63.7084 17 63.7084C21.8167 63.7084 25.5 59.9438 25.5 55.0209C25.5 50.098 21.8167 46.3334 17 46.3334L8.5 55.0209Z" fill="#FFA000"/>
<path d="M90.6667 31.8542H76.5V55.0209H93.5L90.6667 31.8542Z" fill="#FFC107"/>
<path d="M119 31.8542H104.833L110.5 55.0209H127.5L119 31.8542Z" fill="#FFC107"/>
<path d="M45.3333 31.8542H59.5V55.0209H42.5L45.3333 31.8542Z" fill="#FFC107"/>
<path d="M17 31.8542H31.1667L25.5 55.0209H8.5L17 31.8542Z" fill="#FFC107"/>
</svg>
