<svg width="98" height="95" viewBox="0 0 98 95" fill="none" xmlns="http://www.w3.org/2000/svg">
<path d="M42.875 83.125C42.875 83.125 36.75 83.125 36.75 77.1875C36.75 71.25 42.875 53.4375 67.375 53.4375C91.875 53.4375 98 71.25 98 77.1875C98 83.125 91.875 83.125 91.875 83.125H42.875ZM67.375 47.5C72.2484 47.5 76.9221 45.6233 80.3681 42.2828C83.8141 38.9423 85.75 34.4117 85.75 29.6875C85.75 24.9633 83.8141 20.4327 80.3681 17.0922C76.9221 13.7517 72.2484 11.875 67.375 11.875C62.5016 11.875 57.8279 13.7517 54.3819 17.0922C50.9359 20.4327 49 24.9633 49 29.6875C49 34.4117 50.9359 38.9423 54.3819 42.2828C57.8279 45.6233 62.5016 47.5 67.375 47.5Z" fill="#2F070D"/>
<path fill-rule="evenodd" clip-rule="evenodd" d="M31.948 83.125C31.04 81.2714 30.5872 79.2391 30.625 77.1875C30.625 69.1422 34.79 60.8593 42.483 55.1C38.6432 53.9531 34.6427 53.3922 30.625 53.4375C6.125 53.4375 0 71.25 0 77.1875C0 83.125 6.125 83.125 6.125 83.125H31.948Z" fill="#2F070D"/>
<path d="M27.5625 47.5C31.6236 47.5 35.5184 45.9361 38.3901 43.1524C41.2617 40.3686 42.875 36.5931 42.875 32.6562C42.875 28.7194 41.2617 24.9439 38.3901 22.1601C35.5184 19.3764 31.6236 17.8125 27.5625 17.8125C23.5014 17.8125 19.6066 19.3764 16.7349 22.1601C13.8633 24.9439 12.25 28.7194 12.25 32.6562C12.25 36.5931 13.8633 40.3686 16.7349 43.1524C19.6066 45.9361 23.5014 47.5 27.5625 47.5Z" fill="#2F070D"/>
</svg>
