<svg width="147" height="126" viewBox="0 0 147 126" fill="none" xmlns="http://www.w3.org/2000/svg">
<path d="M147 94.5C147 98.213 145.279 101.774 142.216 104.399C139.153 107.025 134.999 108.5 130.667 108.5H16.3333C12.0015 108.5 7.84702 107.025 4.78392 104.399C1.72083 101.774 0 98.213 0 94.5V84C0 80.287 1.72083 76.726 4.78392 74.1005C7.84702 71.475 12.0015 70 16.3333 70H130.667C134.999 70 139.153 71.475 142.216 74.1005C145.279 76.726 147 80.287 147 84V94.5Z" fill="#DD2E44"/>
<path d="M77.5833 45.5L73.5858 42H29.1795C16.3333 42 12.25 49 12.25 49L0 69.8565V87.5H77.5833V45.5Z" fill="#FFCC4D"/>
<path d="M36.75 70H8.16669L16.3334 56C16.3334 56 20.4167 49 28.5834 49H36.75V70Z" fill="#55ACEE"/>
<path d="M36.75 122.5C45.7707 122.5 53.0833 116.232 53.0833 108.5C53.0833 100.768 45.7707 94.5 36.75 94.5C27.7294 94.5 20.4167 100.768 20.4167 108.5C20.4167 116.232 27.7294 122.5 36.75 122.5Z" fill="#292F33"/>
<path d="M36.75 115.5C41.2603 115.5 44.9166 112.366 44.9166 108.5C44.9166 104.634 41.2603 101.5 36.75 101.5C32.2397 101.5 28.5833 104.634 28.5833 108.5C28.5833 112.366 32.2397 115.5 36.75 115.5Z" fill="#CCD6DD"/>
<path d="M110.25 122.5C119.271 122.5 126.583 116.232 126.583 108.5C126.583 100.768 119.271 94.5 110.25 94.5C101.229 94.5 93.9167 100.768 93.9167 108.5C93.9167 116.232 101.229 122.5 110.25 122.5Z" fill="#292F33"/>
<path d="M110.25 115.5C114.76 115.5 118.417 112.366 118.417 108.5C118.417 104.634 114.76 101.5 110.25 101.5C105.74 101.5 102.083 104.634 102.083 108.5C102.083 112.366 105.74 115.5 110.25 115.5Z" fill="#CCD6DD"/>
<path d="M130.667 28H69.4166C65.0848 28 60.9303 29.475 57.8672 32.1005C54.8041 34.726 53.0833 38.287 53.0833 42V87.5H147V42C147 38.287 145.279 34.726 142.216 32.1005C139.153 29.475 134.999 28 130.667 28Z" fill="#CCD6DD"/>
</svg>
