<svg width="172" height="168" viewBox="0 0 172 168" fill="none" xmlns="http://www.w3.org/2000/svg">
<path d="M119.444 18.6667H52.5556C50.0213 18.6667 47.5908 19.65 45.7988 21.4004C44.0067 23.1507 43 25.5247 43 28V140C43 142.475 44.0067 144.849 45.7988 146.6C47.5908 148.35 50.0213 149.333 52.5556 149.333H119.444C121.979 149.333 124.409 148.35 126.201 146.6C127.993 144.849 129 142.475 129 140V28C129 25.5247 127.993 23.1507 126.201 21.4004C124.409 19.65 121.979 18.6667 119.444 18.6667ZM90.7778 140H81.2222V130.667H90.7778V140ZM52.5556 121.333V28H119.444V121.333H52.5556Z" fill="#472225"/>
</svg>
